<svg xmlns="http://www.w3.org/2000/svg" width="676" height="356" viewBox="0 0 676 356" version="1.1">
	<path d="M 0 178.001 L 0 356.003 338.250 355.751 L 676.500 355.500 676.753 177.750 L 677.006 0 338.503 0 L 0 0 0 178.001 M 0.489 178.500 C 0.489 276.400, 0.606 316.302, 0.750 267.171 C 0.893 218.040, 0.893 137.940, 0.750 89.171 C 0.606 40.402, 0.489 80.600, 0.489 178.500 M 279.500 8.621 C 277.300 8.832, 271.416 9.706, 266.424 10.563 L 257.348 12.122 264.499 19.311 C 270.769 25.615, 272.531 28.292, 278.806 41.059 C 289.772 63.367, 297.427 70.633, 314.585 75.022 C 322.533 77.055, 340 77.814, 340 76.127 C 340 75.647, 339.058 73.124, 337.906 70.520 C 330.447 53.658, 317.741 39.747, 301.738 30.924 C 293.572 26.422, 298.380 27.497, 308.454 32.426 C 323.733 39.902, 336.769 52.392, 344.295 66.766 C 349.956 77.579, 351.441 83.901, 351.396 97 C 351.361 107.207, 351.004 109.531, 348.224 117.671 C 341.021 138.758, 313.110 189.797, 288.710 226.500 C 278.566 241.760, 250.585 280.521, 249.011 281.493 C 245.951 283.384, 245.490 224.664, 248.376 200.500 C 252.538 165.656, 259.764 132.432, 268.993 105.715 C 271.747 97.743, 274 90.604, 274 89.851 C 274 85.909, 263.917 84.010, 255.690 86.402 C 249.023 88.340, 247.751 89.841, 239.507 105.500 C 217.607 147.097, 186.913 194.635, 157.184 233 C 142.122 252.436, 116.490 282.799, 116.201 281.547 C 115.770 279.681, 120.362 262.179, 124.347 250.500 C 128.057 239.628, 136.444 217.572, 148.495 187 C 170.463 131.266, 176.680 109.855, 177.676 86.500 C 178.269 72.572, 177.458 65.970, 174.026 56.798 C 169.905 45.785, 159.283 37.111, 146.116 34.006 C 137.712 32.024, 119.515 33.205, 108.600 36.440 C 78.402 45.391, 46.762 70.112, 27.614 99.717 C 4.569 135.345, 2.228 174.519, 22.072 192.446 C 32.754 202.097, 48.661 203.627, 57.513 195.854 C 59.431 194.170, 60.998 192.502, 60.996 192.146 C 60.994 191.791, 58.968 190.667, 56.493 189.650 C 43.763 184.415, 36.273 165.424, 38.890 145.020 C 43.672 107.736, 69.884 69.493, 101.262 54.023 C 116.120 46.698, 129.394 45.584, 137.030 51.021 C 146.148 57.514, 147.378 77.406, 140.398 105.500 C 135.466 125.350, 130.875 138.305, 111.690 186.500 C 95.336 227.583, 91.284 239.197, 86.098 259.851 C 77.938 292.354, 78.234 313.963, 86.963 323.042 C 91.054 327.298, 95.979 328.621, 101.849 327.041 C 105.279 326.117, 106.090 325.260, 108.862 319.628 C 112.763 311.704, 121.110 300.461, 136.054 283 C 168.866 244.663, 190.292 216.046, 217.665 174 C 221.777 167.684, 223.054 166.271, 222.637 168.500 C 222.328 170.150, 220.962 176.900, 219.601 183.500 C 213.767 211.796, 212.514 224.440, 212.514 255 C 212.514 277.988, 212.856 285.337, 214.280 293 C 218.525 315.833, 223.080 322.333, 234.833 322.333 C 242.005 322.333, 244.197 321.143, 245.872 316.340 C 247.949 310.385, 253.760 301.549, 269.311 280.702 C 296.952 243.646, 313.823 217.981, 339.781 173.500 C 347.164 160.850, 353.616 150.064, 354.121 149.531 C 354.681 148.939, 354.799 149.756, 354.423 151.634 C 353.667 155.414, 356.315 166.156, 359.123 170.699 C 361.103 173.902, 369.365 181, 371.114 181 C 371.568 181, 370.848 179.391, 369.514 177.425 C 364.508 170.048, 362.618 163.253, 362.581 152.500 C 362.550 143.622, 362.849 141.883, 365.245 137 C 372.987 121.224, 393.655 104.217, 422.922 89.539 C 434.585 83.690, 462.470 71, 463.661 71 C 464.039 71, 463.419 72.013, 462.283 73.250 C 458.191 77.708, 448.035 94.224, 441.692 106.735 C 434.053 121.803, 424.084 146.425, 415.949 170.318 L 410.103 187.488 400.301 190.581 C 354.021 205.184, 314.327 231.887, 295.303 261.217 C 285.076 276.984, 280.517 292.370, 281.226 308.723 C 281.630 318.034, 281.999 319.613, 285.363 326.419 C 294.125 344.150, 312.699 351.240, 337.873 346.465 C 367.595 340.826, 392.831 317.612, 412.841 277.500 C 420.859 261.427, 425.747 249.004, 435.068 221.014 C 440.659 204.225, 443.404 197.314, 444.695 196.775 C 445.688 196.360, 460.450 193.507, 477.500 190.435 C 494.550 187.362, 511.365 184.186, 514.868 183.375 C 518.370 182.565, 521.436 182.103, 521.682 182.349 C 521.928 182.595, 520.088 189.480, 517.593 197.648 C 511.981 216.023, 507.805 233.091, 504.847 249.743 C 501.789 266.961, 501.520 296.325, 504.338 305.457 C 508.457 318.804, 514.263 326.400, 523.623 330.685 C 534.051 335.459, 549 334.549, 561.259 328.393 C 581.838 318.059, 605.836 290.475, 625.720 254.301 C 629.417 247.575, 629.546 244.388, 626.267 240.750 C 623.761 237.969, 621.680 238.697, 619.101 243.258 C 613.654 252.891, 599.278 274.123, 592.192 283 C 577.939 300.856, 567.321 309.673, 556.798 312.392 C 547.038 314.914, 540.693 311.348, 537.785 301.705 C 535.784 295.072, 536.345 272.687, 538.891 257.500 C 541.496 241.965, 548.222 215.142, 555.125 192.770 C 562.149 170, 562.806 168.674, 567.812 167.175 C 573.927 165.342, 595.416 154.126, 604.518 148.015 C 642.883 122.259, 667.014 86.742, 666.994 56.062 C 666.988 45.925, 666.043 42.036, 662.061 35.757 C 657.518 28.594, 650.960 25.608, 640 25.714 C 634.039 25.772, 629.711 26.433, 625.510 27.927 C 606.100 34.831, 585.165 55.086, 566.480 85.040 C 557.945 98.723, 543.448 128.003, 536.051 146.500 C 532.532 155.300, 529.529 162.664, 529.378 162.865 C 528.796 163.638, 496.885 170.228, 473.736 174.356 C 457.125 177.319, 449.411 178.324, 449.218 177.552 C 448.739 175.644, 461.808 136.498, 469.247 117.559 C 476.877 98.132, 486.234 78.964, 492.824 69.259 C 495.107 65.897, 499.905 60.526, 503.487 57.323 C 507.068 54.121, 509.999 50.753, 509.999 49.839 C 510 48.925, 508.615 47.013, 506.923 45.589 C 501.997 41.444, 496.957 42, 484.977 48.011 C 479.485 50.768, 462.505 57.996, 447.245 64.074 C 402.913 81.732, 381.864 93.017, 366.195 107.526 C 360.366 112.923, 358.998 113.806, 359.425 111.895 C 359.720 110.578, 361.053 104.100, 362.388 97.500 C 364.922 84.966, 367.503 77.310, 371.524 70.398 C 377.040 60.918, 386.048 52.543, 396.339 47.328 C 402.660 44.125, 403.448 44.961, 397.432 48.487 C 390.024 52.829, 381.758 61.971, 377.037 71.045 L 372.795 79.200 382.174 78.850 C 390.364 78.544, 392.400 78.082, 398.241 75.205 C 406.517 71.127, 409.658 67.436, 416.245 54.046 C 419.478 47.472, 423.104 41.810, 426.013 38.793 L 430.638 33.994 427.069 32.988 C 416.159 29.912, 398.832 30.846, 387.389 35.127 C 375.469 39.587, 365.766 52.474, 364.478 65.554 C 364.156 68.824, 362.914 74.540, 361.718 78.255 L 359.543 85.009 356.792 76.255 C 355.279 71.440, 354.024 65.925, 354.003 64 C 353.936 57.741, 351.085 46.647, 347.836 40 C 341.381 26.794, 326.229 15.274, 309.800 11.081 C 302.390 9.189, 286.784 7.922, 279.500 8.621 M 370.393 9.978 C 369.234 10.447, 366.875 12.541, 365.151 14.633 C 359.623 21.340, 357.185 32.085, 358.562 43.670 L 359.374 50.500 360.121 42.965 C 360.914 34.958, 363.948 25.521, 366.900 21.875 C 368.602 19.774, 368.802 19.748, 371.066 21.334 C 374.210 23.536, 376.563 23.437, 379 21 C 381.662 18.338, 381.572 13.611, 378.811 11.039 C 376.508 8.893, 373.894 8.563, 370.393 9.978 M 632.064 42.614 C 615.607 50.941, 597.628 79.889, 576.889 131.452 C 573.139 140.776, 570.285 148.619, 570.547 148.880 C 571.338 149.671, 587.534 141.073, 597.318 134.668 C 608.611 127.275, 629.389 106.774, 636.506 96.001 C 646.184 81.353, 650.958 69.570, 651.745 58.387 C 652.583 46.474, 649.644 41.137, 641.791 40.314 C 638.485 39.967, 636.253 40.495, 632.064 42.614 M 307.419 87.019 C 297.988 89.928, 298.428 103, 307.956 103 C 311.520 103, 314 100.162, 314 96.083 L 314 92.824 318.250 93.498 C 328.255 95.083, 336.068 101.519, 340.011 111.424 L 342.031 116.500 341.416 112 C 340.042 101.949, 334.286 93.755, 325.621 89.515 C 319.750 86.643, 312.059 85.588, 307.419 87.019 M 391.452 211.419 C 365.359 221.716, 344.460 234.595, 328.963 249.928 C 318.124 260.653, 312.591 268.329, 306.818 280.647 C 292.878 310.394, 301.482 334.680, 325.284 332.769 C 347.175 331.012, 366 307.863, 385.281 258.991 C 393.176 238.978, 404.223 206.989, 403.224 207.030 C 402.826 207.046, 397.529 209.021, 391.452 211.419" stroke="none" fill="black" fill-rule="evenodd"/>
</svg>